<mxfile host="app.diagrams.net" modified="2022-12-22T14:30:43.096Z" agent="5.0 (Windows NT 10.0; Win64; x64) AppleWebKit/537.36 (KHTML, like Gecko) Chrome/108.0.0.0 Safari/537.36" etag="BKopG7GtWO3DsWzqfne3" version="20.7.4" type="github">
  <diagram id="C5RBs43oDa-KdzZeNtuy" name="Page-1">
    <mxGraphModel dx="1035" dy="569" grid="1" gridSize="10" guides="1" tooltips="1" connect="1" arrows="1" fold="1" page="1" pageScale="1" pageWidth="827" pageHeight="1169" math="0" shadow="0">
      <root>
        <mxCell id="WIyWlLk6GJQsqaUBKTNV-0" />
        <mxCell id="WIyWlLk6GJQsqaUBKTNV-1" parent="WIyWlLk6GJQsqaUBKTNV-0" />
        <mxCell id="WPHLh1z_jvQM3cj95jZi-15" value="" style="rounded=0;html=1;jettySize=auto;orthogonalLoop=1;fontSize=11;endArrow=block;endFill=0;endSize=8;strokeWidth=1;shadow=0;labelBackgroundColor=none;edgeStyle=orthogonalEdgeStyle;" edge="1" parent="WIyWlLk6GJQsqaUBKTNV-1" source="WPHLh1z_jvQM3cj95jZi-16" target="WPHLh1z_jvQM3cj95jZi-17">
          <mxGeometry relative="1" as="geometry" />
        </mxCell>
        <mxCell id="WPHLh1z_jvQM3cj95jZi-16" value="Home Pagina" style="rounded=1;whiteSpace=wrap;html=1;fontSize=12;glass=0;strokeWidth=1;shadow=0;" vertex="1" parent="WIyWlLk6GJQsqaUBKTNV-1">
          <mxGeometry x="354" y="50" width="120" height="40" as="geometry" />
        </mxCell>
        <mxCell id="WPHLh1z_jvQM3cj95jZi-36" style="edgeStyle=orthogonalEdgeStyle;rounded=0;orthogonalLoop=1;jettySize=auto;html=1;entryX=0.5;entryY=0;entryDx=0;entryDy=0;fontSize=11;" edge="1" parent="WIyWlLk6GJQsqaUBKTNV-1" source="WPHLh1z_jvQM3cj95jZi-17">
          <mxGeometry relative="1" as="geometry">
            <mxPoint x="293.9999999999998" y="270" as="targetPoint" />
          </mxGeometry>
        </mxCell>
        <mxCell id="WPHLh1z_jvQM3cj95jZi-38" style="edgeStyle=orthogonalEdgeStyle;rounded=0;orthogonalLoop=1;jettySize=auto;html=1;entryX=0.5;entryY=0;entryDx=0;entryDy=0;fontSize=11;" edge="1" parent="WIyWlLk6GJQsqaUBKTNV-1" source="WPHLh1z_jvQM3cj95jZi-17">
          <mxGeometry relative="1" as="geometry">
            <mxPoint x="293.9999999999998" y="270" as="targetPoint" />
            <Array as="points">
              <mxPoint x="414" y="240" />
              <mxPoint x="294" y="240" />
            </Array>
          </mxGeometry>
        </mxCell>
        <mxCell id="WPHLh1z_jvQM3cj95jZi-60" value="" style="edgeStyle=orthogonalEdgeStyle;rounded=0;orthogonalLoop=1;jettySize=auto;html=1;fontSize=11;entryX=0;entryY=0.5;entryDx=0;entryDy=0;" edge="1" parent="WIyWlLk6GJQsqaUBKTNV-1" source="WPHLh1z_jvQM3cj95jZi-17" target="WPHLh1z_jvQM3cj95jZi-47">
          <mxGeometry relative="1" as="geometry">
            <Array as="points">
              <mxPoint x="414" y="340" />
            </Array>
          </mxGeometry>
        </mxCell>
        <mxCell id="WPHLh1z_jvQM3cj95jZi-61" style="edgeStyle=orthogonalEdgeStyle;rounded=0;orthogonalLoop=1;jettySize=auto;html=1;entryX=0;entryY=0.5;entryDx=0;entryDy=0;fontSize=11;" edge="1" parent="WIyWlLk6GJQsqaUBKTNV-1" source="WPHLh1z_jvQM3cj95jZi-17" target="WPHLh1z_jvQM3cj95jZi-48">
          <mxGeometry relative="1" as="geometry">
            <Array as="points">
              <mxPoint x="414" y="280" />
            </Array>
          </mxGeometry>
        </mxCell>
        <mxCell id="WPHLh1z_jvQM3cj95jZi-17" value="Vacatures&amp;nbsp;&lt;br style=&quot;border-color: var(--border-color);&quot;&gt;Pagina" style="rhombus;whiteSpace=wrap;html=1;shadow=0;fontFamily=Helvetica;fontSize=12;align=center;strokeWidth=1;spacing=6;spacingTop=-4;" vertex="1" parent="WIyWlLk6GJQsqaUBKTNV-1">
          <mxGeometry x="364" y="140" width="100" height="80" as="geometry" />
        </mxCell>
        <mxCell id="WPHLh1z_jvQM3cj95jZi-18" value="Voorlichting&lt;br&gt;Pagina" style="rhombus;whiteSpace=wrap;html=1;shadow=0;fontFamily=Helvetica;fontSize=12;align=center;strokeWidth=1;spacing=6;spacingTop=-4;" vertex="1" parent="WIyWlLk6GJQsqaUBKTNV-1">
          <mxGeometry x="484" y="140" width="100" height="80" as="geometry" />
        </mxCell>
        <mxCell id="WPHLh1z_jvQM3cj95jZi-19" value="Registreer pagina" style="rhombus;whiteSpace=wrap;html=1;shadow=0;fontFamily=Helvetica;fontSize=12;align=center;strokeWidth=1;spacing=6;spacingTop=-4;" vertex="1" parent="WIyWlLk6GJQsqaUBKTNV-1">
          <mxGeometry x="244" y="140" width="100" height="80" as="geometry" />
        </mxCell>
        <mxCell id="WPHLh1z_jvQM3cj95jZi-20" value="" style="endArrow=none;html=1;rounded=0;exitX=1;exitY=0.5;exitDx=0;exitDy=0;" edge="1" parent="WIyWlLk6GJQsqaUBKTNV-1" source="WPHLh1z_jvQM3cj95jZi-17">
          <mxGeometry width="50" height="50" relative="1" as="geometry">
            <mxPoint x="584" y="260" as="sourcePoint" />
            <mxPoint x="484" y="180" as="targetPoint" />
          </mxGeometry>
        </mxCell>
        <mxCell id="WPHLh1z_jvQM3cj95jZi-21" value="" style="endArrow=none;html=1;rounded=0;entryX=0;entryY=0.5;entryDx=0;entryDy=0;exitX=1;exitY=0.5;exitDx=0;exitDy=0;" edge="1" parent="WIyWlLk6GJQsqaUBKTNV-1" source="WPHLh1z_jvQM3cj95jZi-19" target="WPHLh1z_jvQM3cj95jZi-17">
          <mxGeometry width="50" height="50" relative="1" as="geometry">
            <mxPoint x="314" y="230" as="sourcePoint" />
            <mxPoint x="364" y="180" as="targetPoint" />
          </mxGeometry>
        </mxCell>
        <mxCell id="WPHLh1z_jvQM3cj95jZi-37" style="edgeStyle=orthogonalEdgeStyle;rounded=0;orthogonalLoop=1;jettySize=auto;html=1;entryX=0.5;entryY=0;entryDx=0;entryDy=0;fontSize=11;" edge="1" parent="WIyWlLk6GJQsqaUBKTNV-1" source="WPHLh1z_jvQM3cj95jZi-22">
          <mxGeometry relative="1" as="geometry">
            <mxPoint x="293.9999999999998" y="270" as="targetPoint" />
            <Array as="points">
              <mxPoint x="180" y="240" />
              <mxPoint x="294" y="240" />
            </Array>
          </mxGeometry>
        </mxCell>
        <mxCell id="WPHLh1z_jvQM3cj95jZi-22" value="Login Pagina" style="rhombus;whiteSpace=wrap;html=1;shadow=0;fontFamily=Helvetica;fontSize=12;align=center;strokeWidth=1;spacing=6;spacingTop=-4;" vertex="1" parent="WIyWlLk6GJQsqaUBKTNV-1">
          <mxGeometry x="130" y="140" width="100" height="80" as="geometry" />
        </mxCell>
        <mxCell id="WPHLh1z_jvQM3cj95jZi-23" value="" style="endArrow=none;html=1;rounded=0;entryX=0;entryY=0.5;entryDx=0;entryDy=0;exitX=1;exitY=0.5;exitDx=0;exitDy=0;" edge="1" parent="WIyWlLk6GJQsqaUBKTNV-1" source="WPHLh1z_jvQM3cj95jZi-22" target="WPHLh1z_jvQM3cj95jZi-19">
          <mxGeometry width="50" height="50" relative="1" as="geometry">
            <mxPoint x="677.5" y="230" as="sourcePoint" />
            <mxPoint x="727.5" y="180" as="targetPoint" />
          </mxGeometry>
        </mxCell>
        <mxCell id="WPHLh1z_jvQM3cj95jZi-24" value="Voorwaarden&lt;br&gt;Pagina&lt;br&gt;" style="rhombus;whiteSpace=wrap;html=1;shadow=0;fontFamily=Helvetica;fontSize=12;align=center;strokeWidth=1;spacing=6;spacingTop=-4;" vertex="1" parent="WIyWlLk6GJQsqaUBKTNV-1">
          <mxGeometry x="604" y="140" width="100" height="80" as="geometry" />
        </mxCell>
        <mxCell id="WPHLh1z_jvQM3cj95jZi-25" value="" style="endArrow=none;html=1;rounded=0;exitX=1;exitY=0.5;exitDx=0;exitDy=0;" edge="1" parent="WIyWlLk6GJQsqaUBKTNV-1">
          <mxGeometry width="50" height="50" relative="1" as="geometry">
            <mxPoint x="584" y="180" as="sourcePoint" />
            <mxPoint x="604" y="180" as="targetPoint" />
          </mxGeometry>
        </mxCell>
        <mxCell id="WPHLh1z_jvQM3cj95jZi-40" value="Database" style="shape=cylinder3;whiteSpace=wrap;html=1;boundedLbl=1;backgroundOutline=1;size=15;fontSize=11;" vertex="1" parent="WIyWlLk6GJQsqaUBKTNV-1">
          <mxGeometry x="264" y="270" width="60" height="80" as="geometry" />
        </mxCell>
        <mxCell id="WPHLh1z_jvQM3cj95jZi-41" value="" style="endArrow=none;dashed=1;html=1;rounded=0;fontSize=11;exitX=0.5;exitY=0;exitDx=0;exitDy=0;" edge="1" parent="WIyWlLk6GJQsqaUBKTNV-1" source="WPHLh1z_jvQM3cj95jZi-22">
          <mxGeometry width="50" height="50" relative="1" as="geometry">
            <mxPoint x="304" y="110" as="sourcePoint" />
            <mxPoint x="350" y="70" as="targetPoint" />
            <Array as="points">
              <mxPoint x="180" y="70" />
            </Array>
          </mxGeometry>
        </mxCell>
        <mxCell id="WPHLh1z_jvQM3cj95jZi-43" value="Uitloggen" style="rhombus;whiteSpace=wrap;html=1;fontSize=11;" vertex="1" parent="WIyWlLk6GJQsqaUBKTNV-1">
          <mxGeometry x="140" y="30" width="80" height="80" as="geometry" />
        </mxCell>
        <mxCell id="WPHLh1z_jvQM3cj95jZi-73" style="edgeStyle=orthogonalEdgeStyle;rounded=0;orthogonalLoop=1;jettySize=auto;html=1;entryX=0;entryY=0.5;entryDx=0;entryDy=0;entryPerimeter=0;fontSize=11;" edge="1" parent="WIyWlLk6GJQsqaUBKTNV-1" source="WPHLh1z_jvQM3cj95jZi-47" target="WPHLh1z_jvQM3cj95jZi-70">
          <mxGeometry relative="1" as="geometry" />
        </mxCell>
        <mxCell id="WPHLh1z_jvQM3cj95jZi-47" value="Vacatures Uploaden" style="shape=parallelogram;perimeter=parallelogramPerimeter;whiteSpace=wrap;html=1;fixedSize=1;fontSize=11;" vertex="1" parent="WIyWlLk6GJQsqaUBKTNV-1">
          <mxGeometry x="430" y="320" width="130" height="40" as="geometry" />
        </mxCell>
        <mxCell id="WPHLh1z_jvQM3cj95jZi-72" style="edgeStyle=orthogonalEdgeStyle;rounded=0;orthogonalLoop=1;jettySize=auto;html=1;entryX=0;entryY=0.5;entryDx=0;entryDy=0;entryPerimeter=0;fontSize=11;" edge="1" parent="WIyWlLk6GJQsqaUBKTNV-1" source="WPHLh1z_jvQM3cj95jZi-48" target="WPHLh1z_jvQM3cj95jZi-70">
          <mxGeometry relative="1" as="geometry" />
        </mxCell>
        <mxCell id="WPHLh1z_jvQM3cj95jZi-48" value="CV Uploaden" style="shape=parallelogram;perimeter=parallelogramPerimeter;whiteSpace=wrap;html=1;fixedSize=1;fontSize=11;" vertex="1" parent="WIyWlLk6GJQsqaUBKTNV-1">
          <mxGeometry x="434" y="260" width="126" height="40" as="geometry" />
        </mxCell>
        <mxCell id="WPHLh1z_jvQM3cj95jZi-70" value="Database" style="shape=cylinder3;whiteSpace=wrap;html=1;boundedLbl=1;backgroundOutline=1;size=15;fontSize=11;" vertex="1" parent="WIyWlLk6GJQsqaUBKTNV-1">
          <mxGeometry x="620" y="270" width="60" height="80" as="geometry" />
        </mxCell>
      </root>
    </mxGraphModel>
  </diagram>
</mxfile>
